<svg width="25.000000" height="25.000000" viewBox="0 0 25 25" fill="none" xmlns="http://www.w3.org/2000/svg" xmlns:xlink="http://www.w3.org/1999/xlink">

	<defs>
		<clipPath id="clip7_917">
			<rect id="dress (1) 1" width="25.000000" height="25.000000" fill="white" fill-opacity="0"/>
		</clipPath>
	</defs>
	<rect id="dress (1) 1" width="25.000000" height="25.000000" fill="#FFFFFF" fill-opacity="0"/>
	<g clip-path="url(#clip7_917)">
		<path id="Vector" d="M21.51 22.64L21.15 20.97C20.42 17.53 19.06 14.29 17.13 11.35L17.13 8.64C18.02 7.97 18.6 6.9 18.6 5.71L18.6 4.24C18.6 3.84 18.27 3.51 17.87 3.51L17.13 3.51L17.13 0.73C17.13 0.32 16.81 0 16.4 0C16 0 15.67 0.32 15.67 0.73L15.67 3.52C14.35 3.6 13.2 4.29 12.5 5.31C11.79 4.29 10.64 3.6 9.32 3.52L9.32 0.73C9.32 0.32 8.99 0 8.59 0C8.18 0 7.86 0.32 7.86 0.73L7.86 3.51L7.12 3.51C6.72 3.51 6.39 3.84 6.39 4.24L6.39 5.71C6.39 6.9 6.97 7.97 7.86 8.64L7.86 11.35C5.93 14.29 4.57 17.53 3.84 20.97L3.48 22.64C3.4 23 3.6 23.36 3.94 23.49C6.69 24.49 9.57 25 12.5 25C15.42 25 18.3 24.49 21.05 23.49C21.39 23.36 21.59 23 21.51 22.64ZM15.91 4.98L17.13 4.98L17.13 5.71C17.13 6.92 16.15 7.91 14.94 7.91L13.23 7.91L13.23 7.66C13.23 6.18 14.43 4.98 15.91 4.98ZM7.86 4.98L9.08 4.98C10.56 4.98 11.76 6.18 11.76 7.66L11.76 7.91L10.05 7.91C8.84 7.91 7.86 6.92 7.86 5.71L7.86 4.98ZM10.05 9.37L14.94 9.37C15.19 9.37 15.43 9.34 15.67 9.3L15.67 10.83L9.32 10.83L9.32 9.3C9.56 9.34 9.8 9.37 10.05 9.37ZM12.5 23.53C9.95 23.53 7.45 23.12 5.05 22.32L5.27 21.28C5.96 18.07 7.21 15.05 8.98 12.3L16.01 12.3C17.78 15.05 19.03 18.07 19.72 21.28L19.94 22.32C17.54 23.12 15.04 23.53 12.5 23.53Z" fill="#000000" fill-opacity="1.000000" fill-rule="nonzero"/>
	</g>
</svg>
